# xmcd CD database file
#
# Track frame offsets:
#	150
#	14091
#	26990
#	47385
#	63030
#	84016
#	104257
#	119015
#	132659
#	147855
#	162158
#	177258
#	205198
#	223097
#	241976
#	268844
#	285625
#	303099
#
# Disc length: 4293 seconds
#
# Revision: 0
# Processed by: cddbd v1.5.2PL0 Copyright (c) Steve Scherf et al.
# Submitted via: CDex 1.70beta2
#
DISCID=0410c312
DTITLE=Woody Herman - The First Herd - Bebop Story The Early Years Vol 9 CD 009
DYEAR=2008
DGENRE=Jazz
TTITLE0=Flying Home
TTITLE1=It Must Be Jelly
TTITLE2=Red Top
TTITLE3=Jones Beachhaed
TTITLE4=Apple Honey
TTITLE5=John Hardy's Wife
TTITLE6=Apple Honey
TTITLE7=Caldonia
TTITLE8=Goosey Gander
TTITLE9=Northwest Passage
TTITLE10=Bijou
TTITLE11=Ah Your Father's Moustache
TTITLE12=Don't Worry 'Bout The Mule
TTITLE13=125th St. Prophet
TTITLE14=Meshugah
TTITLE15=Caldonia
TTITLE16=Jackson Fiddles While Ralph Burns
TTITLE17=Blowin' Up A Storm
EXTD=YEAR: 2008
EXTT0=
EXTT1=
EXTT2=
EXTT3=
EXTT4=
EXTT5=
EXTT6=
EXTT7=
EXTT8=
EXTT9=
EXTT10=
EXTT11=
EXTT12=
EXTT13=
EXTT14=
EXTT15=
EXTT16=
EXTT17=
PLAYORDER=
